<svg viewBox="0 0 1600 1000" xmlns="http://www.w3.org/2000/svg">
  <defs>
    <!-- Patterns for hatching/stripes -->
    <pattern id="hatchCoral" patternUnits="userSpaceOnUse" width="8" height="8" patternTransform="rotate(0)">
      <path d="M 0,8 L 8,0" stroke="#ff6600" stroke-width="1.5" opacity="0.6"/>
    </pattern>
    <pattern id="hatchCyan" patternUnits="userSpaceOnUse" width="8" height="8" patternTransform="rotate(0)">
      <path d="M 0,8 L 8,0" stroke="#00B4D8" stroke-width="1.5" opacity="0.6"/>
    </pattern>
    
    <!-- Gear icon path -->
    <path id="gearPath" d="M 12,6 L 14,4 L 16,6 L 18,6 L 18,8 L 16,8 L 14,10 L 16,12 L 18,12 L 18,14 L 16,14 L 14,16 L 12,14 L 10,14 L 10,12 L 12,10 L 10,8 L 10,6 Z M 12,10" transform="scale(0.8) translate(-10,-10)"/>
    
    <!-- Arrow markers -->
    <marker id="arrowSolid" markerWidth="10" markerHeight="10" refX="9" refY="3" orient="auto">
      <polygon points="0 0, 10 3, 0 6" fill="#00B4D8"/>
    </marker>
    <marker id="arrowDashed" markerWidth="10" markerHeight="10" refX="9" refY="3" orient="auto">
      <polygon points="0 0, 10 3, 0 6" fill="#00B4D8" opacity="0.7"/>
    </marker>
    
    <!-- Sketchy filter for hand-drawn effect -->
    <filter id="sketchy">
      <feTurbulence type="fractalNoise" baseFrequency="0.04" numOctaves="3" result="noise"/>
      <feDisplacementMap in="SourceGraphic" in2="noise" scale="2"/>
    </filter>
  </defs>
  
  <!-- Background -->
  <rect width="1600" height="1000" fill="#0d0d0d"/>
  
  <!-- Title -->
  <text x="50" y="50" font-family="Lexend Exa, sans-serif" font-size="36" font-weight="700" fill="#00B4D8">1 Workflow</text>
  
  <!-- Development Phases (Vertical on left) -->
  <g id="phases">
    <rect x="30" y="120" width="220" height="70" rx="10" fill="rgba(0,180,216,0.08)" stroke="#00B4D8" stroke-width="3" filter="url(#sketchy)"/>
    <text x="45" y="150" font-family="Lexend Exa, sans-serif" font-size="15" fill="#00B4D8" font-weight="600">Divide UC into</text>
    <text x="45" y="170" font-family="Lexend Exa, sans-serif" font-size="15" fill="#00B4D8" font-weight="600">functionalities and</text>
    <text x="45" y="190" font-family="Lexend Exa, sans-serif" font-size="15" fill="#00B4D8" font-weight="600">consolidate</text>
    
    <rect x="30" y="210" width="220" height="70" rx="10" fill="rgba(0,180,216,0.08)" stroke="#00B4D8" stroke-width="3" filter="url(#sketchy)"/>
    <text x="45" y="240" font-family="Lexend Exa, sans-serif" font-size="15" fill="#00B4D8" font-weight="600">Develop/Reuse</text>
    <text x="45" y="260" font-family="Lexend Exa, sans-serif" font-size="15" fill="#00B4D8" font-weight="600">concept for each</text>
    <text x="45" y="280" font-family="Lexend Exa, sans-serif" font-size="15" fill="#00B4D8" font-weight="600">functionality</text>
    
    <rect x="30" y="300" width="220" height="70" rx="10" fill="rgba(0,180,216,0.08)" stroke="#00B4D8" stroke-width="3" filter="url(#sketchy)"/>
    <text x="45" y="330" font-family="Lexend Exa, sans-serif" font-size="15" fill="#00B4D8" font-weight="600">Align Realization</text>
    <text x="45" y="350" font-family="Lexend Exa, sans-serif" font-size="15" fill="#00B4D8" font-weight="600">Concept</text>
    
    <rect x="30" y="390" width="220" height="90" rx="10" fill="rgba(0,180,216,0.08)" stroke="#00B4D8" stroke-width="3" filter="url(#sketchy)"/>
    <text x="45" y="420" font-family="Lexend Exa, sans-serif" font-size="15" fill="#00B4D8" font-weight="600">Allocate functional</text>
    <text x="45" y="440" font-family="Lexend Exa, sans-serif" font-size="15" fill="#00B4D8" font-weight="600">and quality domain</text>
    <text x="45" y="460" font-family="Lexend Exa, sans-serif" font-size="15" fill="#00B4D8" font-weight="600">requirements, IDLs,</text>
    <text x="45" y="480" font-family="Lexend Exa, sans-serif" font-size="15" fill="#00B4D8" font-weight="600">tests, etc to physical</text>
    
    <!-- Tools icon (lightbulb with gears) -->
    <circle cx="280" cy="160" r="20" fill="rgba(255,102,0,0.2)" stroke="#ff6600" stroke-width="2"/>
    <text x="270" y="167" font-family="Lexend Exa, sans-serif" font-size="20" fill="#ff6600">⚙</text>
  </g>
  
  <!-- Product Management Layer (Green) -->
  <g id="product-mgmt">
    <rect x="280" y="80" width="200" height="50" rx="8" fill="rgba(0,180,216,0.1)" stroke="#00B4D8" stroke-width="3" filter="url(#sketchy)"/>
    <text x="290" y="110" font-family="Lexend Exa, sans-serif" font-size="16" fill="#00B4D8" font-weight="700">Product Management</text>
  </g>
  
  <!-- Requirements Layer (Pink Outline) -->
  <g id="requirements">
    <rect x="280" y="150" width="1100" height="120" rx="10" fill="none" stroke="#ff6600" stroke-width="4" stroke-dasharray="6,4" opacity="0.8" filter="url(#sketchy)"/>
    
    <!-- Product Requirements (striped pink) -->
    <rect x="300" y="170" width="180" height="80" rx="8" fill="rgba(255,102,0,0.3)" stroke="#ff6600" stroke-width="2.5" filter="url(#sketchy)"/>
    <rect x="300" y="170" width="180" height="80" fill="url(#hatchCoral)"/>
    <text x="310" y="200" font-family="Lexend Exa, sans-serif" font-size="15" fill="#ff6600" font-weight="700">Product</text>
    <text x="310" y="220" font-family="Lexend Exa, sans-serif" font-size="15" fill="#ff6600" font-weight="700">Requirements</text>
    
    <!-- Product Use Case (oval, light green) -->
    <ellipse cx="550" cy="210" rx="80" ry="50" fill="rgba(0,180,216,0.3)" stroke="#00B4D8" stroke-width="2.5" filter="url(#sketchy)"/>
    <text x="500" y="200" font-family="Lexend Exa, sans-serif" font-size="14" fill="#00B4D8" font-weight="700">Product</text>
    <text x="500" y="220" font-family="Lexend Exa, sans-serif" font-size="14" fill="#00B4D8" font-weight="700">Use Case</text>
    <!-- Gear icon near Product Use Case -->
    <circle cx="640" cy="210" r="12" fill="rgba(0,180,216,0.2)" stroke="#00B4D8" stroke-width="2"/>
    <text x="635" y="216" font-family="Lexend Exa, sans-serif" font-size="14" fill="#00B4D8">⚙</text>
    
    <!-- Formalized Use Case (striped yellow) -->
    <rect x="700" y="170" width="250" height="80" rx="8" fill="rgba(255,102,0,0.3)" stroke="#ff6600" stroke-width="2.5" filter="url(#sketchy)"/>
    <rect x="700" y="170" width="250" height="80" fill="url(#hatchCoral)"/>
    <text x="710" y="200" font-family="Lexend Exa, sans-serif" font-size="15" fill="#ff6600" font-weight="700">Formalized</text>
    <text x="710" y="220" font-family="Lexend Exa, sans-serif" font-size="15" fill="#ff6600" font-weight="700">Use Case</text>
    <!-- Gear icon near Formalized Use Case -->
    <circle cx="960" cy="210" r="12" fill="rgba(0,180,216,0.2)" stroke="#00B4D8" stroke-width="2"/>
    <text x="955" y="216" font-family="Lexend Exa, sans-serif" font-size="14" fill="#00B4D8">⚙</text>
    
    <!-- Arrows in Requirements layer -->
    <path d="M 520 210 L 470 210" stroke="#00B4D8" stroke-width="2.5" marker-end="url(#arrowSolid)" filter="url(#sketchy)"/>
    <text x="485" y="205" font-family="Lexend Exa, sans-serif" font-size="12" fill="#00B4D8" font-weight="600">refines</text>
    
    <path d="M 630 210 L 700 210" stroke="#00B4D8" stroke-width="2.5" marker-end="url(#arrowSolid)" filter="url(#sketchy)"/>
    <text x="655" y="205" font-family="Lexend Exa, sans-serif" font-size="12" fill="#00B4D8" font-weight="600">realize</text>
    
    <!-- Dashed arrows from Product Requirements -->
    <path d="M 390 250 L 390 300" stroke="#00B4D8" stroke-width="2" stroke-dasharray="5,5" marker-end="url(#arrowDashed)" opacity="0.7"/>
    <path d="M 480 250 L 480 300" stroke="#00B4D8" stroke-width="2" stroke-dasharray="5,5" marker-end="url(#arrowDashed)" opacity="0.7"/>
    <path d="M 630 250 L 630 300" stroke="#00B4D8" stroke-width="2" stroke-dasharray="5,5" marker-end="url(#arrowDashed)" opacity="0.7"/>
  </g>
  
  <!-- Functional Architecture Layer (Yellow Outline) -->
  <g id="functional">
    <rect x="280" y="300" width="1100" height="140" rx="10" fill="none" stroke="#ff6600" stroke-width="4" stroke-dasharray="6,4" opacity="0.8" filter="url(#sketchy)"/>
    
    <!-- Sub Function (striped yellow) -->
    <rect x="300" y="320" width="140" height="60" rx="8" fill="rgba(255,102,0,0.3)" stroke="#ff6600" stroke-width="2.5" filter="url(#sketchy)"/>
    <rect x="300" y="320" width="140" height="60" fill="url(#hatchCoral)"/>
    <text x="310" y="350" font-family="Lexend Exa, sans-serif" font-size="14" fill="#ff6600" font-weight="700">Sub Function</text>
    <!-- Gear icon below Sub Function -->
    <circle cx="370" cy="400" r="12" fill="rgba(0,180,216,0.2)" stroke="#00B4D8" stroke-width="2"/>
    <text x="365" y="406" font-family="Lexend Exa, sans-serif" font-size="14" fill="#00B4D8">⚙</text>
    
    <!-- Sub-Function Aggregate (multiple boxes) -->
    <rect x="480" y="320" width="80" height="60" rx="8" fill="rgba(255,102,0,0.3)" stroke="#ff6600" stroke-width="2.5" filter="url(#sketchy)"/>
    <rect x="480" y="320" width="80" height="60" fill="url(#hatchCoral)"/>
    <rect x="580" y="320" width="80" height="60" rx="8" fill="rgba(255,102,0,0.3)" stroke="#ff6600" stroke-width="2.5" filter="url(#sketchy)"/>
    <rect x="580" y="320" width="80" height="60" fill="url(#hatchCoral)"/>
    <rect x="680" y="320" width="140" height="60" rx="8" fill="rgba(255,102,0,0.3)" stroke="#ff6600" stroke-width="2.5" filter="url(#sketchy)"/>
    <rect x="680" y="320" width="140" height="60" fill="url(#hatchCoral)"/>
    <text x="690" y="350" font-family="Lexend Exa, sans-serif" font-size="13" fill="#ff6600" font-weight="700">Sub-Function</text>
    <text x="690" y="370" font-family="Lexend Exa, sans-serif" font-size="13" fill="#ff6600" font-weight="700">Aggregate</text>
    <!-- Gear icon below Sub-Function Aggregate -->
    <circle cx="750" cy="400" r="12" fill="rgba(0,180,216,0.2)" stroke="#00B4D8" stroke-width="2"/>
    <text x="745" y="406" font-family="Lexend Exa, sans-serif" font-size="14" fill="#00B4D8">⚙</text>
    
    <!-- White boxes before VSS Interface -->
    <rect x="860" y="320" width="100" height="60" rx="8" fill="rgba(255,255,255,0.2)" stroke="#ffffff" stroke-width="2" filter="url(#sketchy)"/>
    <circle cx="980" cy="350" r="12" fill="rgba(0,180,216,0.2)" stroke="#00B4D8" stroke-width="2"/>
    <text x="975" y="356" font-family="Lexend Exa, sans-serif" font-size="14" fill="#00B4D8">⚙</text>
    <rect x="1010" y="320" width="100" height="60" rx="8" fill="rgba(255,255,255,0.2)" stroke="#ffffff" stroke-width="2" filter="url(#sketchy)"/>
    
    <!-- VSS Interface Definition (striped yellow) -->
    <rect x="1140" y="320" width="200" height="60" rx="8" fill="rgba(255,102,0,0.3)" stroke="#ff6600" stroke-width="2.5" filter="url(#sketchy)"/>
    <rect x="1140" y="320" width="200" height="60" fill="url(#hatchCoral)"/>
    <text x="1150" y="350" font-family="Lexend Exa, sans-serif" font-size="14" fill="#ff6600" font-weight="700">VSS Interface</text>
    <text x="1150" y="370" font-family="Lexend Exa, sans-serif" font-size="14" fill="#ff6600" font-weight="700">Definition</text>
    
    <!-- Arrows in Functional layer -->
    <path d="M 440 350 L 480 350" stroke="#00B4D8" stroke-width="2.5" marker-end="url(#arrowSolid)"/>
    <path d="M 560 350 L 580 350" stroke="#00B4D8" stroke-width="2.5" marker-end="url(#arrowSolid)"/>
    <path d="M 660 350 L 680 350" stroke="#00B4D8" stroke-width="2.5" marker-end="url(#arrowSolid)"/>
    <path d="M 820 350 L 860 350" stroke="#00B4D8" stroke-width="2.5" marker-end="url(#arrowSolid)"/>
    <path d="M 960 350 L 1010 350" stroke="#00B4D8" stroke-width="2.5" marker-end="url(#arrowSolid)"/>
    <path d="M 1110 350 L 1140 350" stroke="#00B4D8" stroke-width="2.5" marker-end="url(#arrowSolid)"/>
    
    <!-- Dashed arrows down to Concept Architecture -->
    <path d="M 370 380 L 370 480" stroke="#00B4D8" stroke-width="2" stroke-dasharray="5,5" marker-end="url(#arrowDashed)" opacity="0.7"/>
    <path d="M 500 380 L 500 480" stroke="#00B4D8" stroke-width="2" stroke-dasharray="5,5" marker-end="url(#arrowDashed)" opacity="0.7"/>
    <path d="M 750 380 L 750 480" stroke="#00B4D8" stroke-width="2" stroke-dasharray="5,5" marker-end="url(#arrowDashed)" opacity="0.7"/>
  </g>
  
  <!-- Concept Architecture Layer (Teal Outline) -->
  <g id="concept">
    <rect x="280" y="480" width="1100" height="120" rx="10" fill="none" stroke="#00B4D8" stroke-width="4" stroke-dasharray="6,4" opacity="0.8" filter="url(#sketchy)"/>
    
    <!-- Multiple teal striped rectangles -->
    <rect x="300" y="500" width="100" height="60" rx="8" fill="rgba(0,180,216,0.3)" stroke="#00B4D8" stroke-width="2.5" filter="url(#sketchy)"/>
    <rect x="300" y="500" width="100" height="60" fill="url(#hatchCyan)"/>
    <rect x="420" y="500" width="100" height="60" rx="8" fill="rgba(0,180,216,0.3)" stroke="#00B4D8" stroke-width="2.5" filter="url(#sketchy)"/>
    <rect x="420" y="500" width="100" height="60" fill="url(#hatchCyan)"/>
    <rect x="540" y="500" width="100" height="60" rx="8" fill="rgba(0,180,216,0.3)" stroke="#00B4D8" stroke-width="2.5" filter="url(#sketchy)"/>
    <rect x="540" y="500" width="100" height="60" fill="url(#hatchCyan)"/>
    <rect x="660" y="500" width="100" height="60" rx="8" fill="rgba(0,180,216,0.3)" stroke="#00B4D8" stroke-width="2.5" filter="url(#sketchy)"/>
    <rect x="660" y="500" width="100" height="60" fill="url(#hatchCyan)"/>
    
    <!-- Concept Aggregate (larger teal box) -->
    <rect x="800" y="500" width="200" height="60" rx="8" fill="rgba(0,180,216,0.3)" stroke="#00B4D8" stroke-width="2.5" filter="url(#sketchy)"/>
    <rect x="800" y="500" width="200" height="60" fill="url(#hatchCyan)"/>
    <text x="810" y="530" font-family="Lexend Exa, sans-serif" font-size="15" fill="#00B4D8" font-weight="700">Concept Aggregate</text>
    <!-- Large gear icon below Concept Aggregate -->
    <circle cx="900" cy="590" r="16" fill="rgba(0,180,216,0.2)" stroke="#00B4D8" stroke-width="2.5"/>
    <text x="892" y="598" font-family="Lexend Exa, sans-serif" font-size="18" fill="#00B4D8">⚙</text>
    
    <!-- Arrows in Concept layer -->
    <path d="M 400 530 L 420 530" stroke="#00B4D8" stroke-width="2.5" marker-end="url(#arrowSolid)"/>
    <path d="M 520 530 L 540 530" stroke="#00B4D8" stroke-width="2.5" marker-end="url(#arrowSolid)"/>
    <path d="M 640 530 L 660 530" stroke="#00B4D8" stroke-width="2.5" marker-end="url(#arrowSolid)"/>
    <path d="M 760 530 L 800 530" stroke="#00B4D8" stroke-width="2.5" marker-end="url(#arrowSolid)"/>
    
    <!-- Dashed arrows down to Physical Architecture -->
    <path d="M 400 560 L 400 640" stroke="#00B4D8" stroke-width="2" stroke-dasharray="5,5" marker-end="url(#arrowDashed)" opacity="0.7"/>
    <path d="M 540 560 L 540 640" stroke="#00B4D8" stroke-width="2" stroke-dasharray="5,5" marker-end="url(#arrowDashed)" opacity="0.7"/>
    <path d="M 900 560 L 900 640" stroke="#00B4D8" stroke-width="2" stroke-dasharray="5,5" marker-end="url(#arrowDashed)" opacity="0.7"/>
  </g>
  
  <!-- Physical Architecture Layer (Purple Outline) -->
  <g id="physical">
    <rect x="280" y="640" width="1100" height="280" rx="10" fill="none" stroke="#00B4D8" stroke-width="4" stroke-dasharray="6,4" opacity="0.8" filter="url(#sketchy)"/>
    
    <!-- Cluster of purple rectangles (left) -->
    <rect x="300" y="660" width="100" height="70" rx="8" fill="rgba(0,180,216,0.3)" stroke="#00B4D8" stroke-width="2.5" filter="url(#sketchy)"/>
    <rect x="300" y="660" width="100" height="70" fill="url(#hatchCyan)"/>
    <rect x="420" y="660" width="100" height="70" rx="8" fill="rgba(0,180,216,0.3)" stroke="#00B4D8" stroke-width="2.5" filter="url(#sketchy)"/>
    <rect x="420" y="660" width="100" height="70" fill="url(#hatchCyan)"/>
    <path d="M 400 695 L 420 695" stroke="#00B4D8" stroke-width="2.5" marker-end="url(#arrowSolid)"/>
    
    <!-- Hardware Capabilities (striped purple) -->
    <rect x="560" y="660" width="180" height="70" rx="8" fill="rgba(0,180,216,0.3)" stroke="#00B4D8" stroke-width="2.5" filter="url(#sketchy)"/>
    <rect x="560" y="660" width="180" height="70" fill="url(#hatchCyan)"/>
    <text x="570" y="690" font-family="Lexend Exa, sans-serif" font-size="15" fill="#00B4D8" font-weight="700">Hardware</text>
    <text x="570" y="710" font-family="Lexend Exa, sans-serif" font-size="15" fill="#00B4D8" font-weight="700">Capabilities</text>
    <!-- Gear icon below Hardware Capabilities -->
    <circle cx="650" cy="750" r="12" fill="rgba(0,180,216,0.2)" stroke="#00B4D8" stroke-width="2"/>
    <text x="645" y="756" font-family="Lexend Exa, sans-serif" font-size="14" fill="#00B4D8">⚙</text>
    
    <!-- Software Capability (striped purple) -->
    <rect x="780" y="660" width="180" height="70" rx="8" fill="rgba(0,180,216,0.3)" stroke="#00B4D8" stroke-width="2.5" filter="url(#sketchy)"/>
    <rect x="780" y="660" width="180" height="70" fill="url(#hatchCyan)"/>
    <text x="790" y="690" font-family="Lexend Exa, sans-serif" font-size="15" fill="#00B4D8" font-weight="700">Software</text>
    <text x="790" y="710" font-family="Lexend Exa, sans-serif" font-size="15" fill="#00B4D8" font-weight="700">Capability</text>
    <!-- Gear icon below Software Capability -->
    <circle cx="870" cy="750" r="12" fill="rgba(0,180,216,0.2)" stroke="#00B4D8" stroke-width="2"/>
    <text x="865" y="756" font-family="Lexend Exa, sans-serif" font-size="14" fill="#00B4D8">⚙</text>
    
    <!-- Another cluster (right) -->
    <rect x="1000" y="660" width="100" height="70" rx="8" fill="rgba(0,180,216,0.3)" stroke="#00B4D8" stroke-width="2.5" filter="url(#sketchy)"/>
    <rect x="1000" y="660" width="100" height="70" fill="url(#hatchCyan)"/>
    <rect x="1120" y="660" width="100" height="70" rx="8" fill="rgba(0,180,216,0.3)" stroke="#00B4D8" stroke-width="2.5" filter="url(#sketchy)"/>
    <rect x="1120" y="660" width="100" height="70" fill="url(#hatchCyan)"/>
    <path d="M 1100 695 L 1120 695" stroke="#00B4D8" stroke-width="2.5" marker-end="url(#arrowSolid)"/>
    
    <!-- Arrows in Physical layer -->
    <path d="M 520 695 L 560 695" stroke="#00B4D8" stroke-width="2.5" marker-end="url(#arrowSolid)"/>
    <path d="M 740 695 L 780 695" stroke="#00B4D8" stroke-width="2.5" marker-end="url(#arrowSolid)"/>
    <path d="M 960 695 L 1000 695" stroke="#00B4D8" stroke-width="2.5" marker-end="url(#arrowSolid)"/>
    
    <!-- SWC boxes (below Hardware and Software) -->
    <rect x="560" y="780" width="120" height="100" rx="8" fill="rgba(0,180,216,0.3)" stroke="#00B4D8" stroke-width="2.5" filter="url(#sketchy)"/>
    <rect x="560" y="780" width="120" height="100" fill="url(#hatchCyan)"/>
    <text x="590" y="830" font-family="Lexend Exa, sans-serif" font-size="18" fill="#00B4D8" font-weight="700">SWC</text>
    
    <rect x="780" y="780" width="120" height="100" rx="8" fill="rgba(0,180,216,0.3)" stroke="#00B4D8" stroke-width="2.5" filter="url(#sketchy)"/>
    <rect x="780" y="780" width="120" height="100" fill="url(#hatchCyan)"/>
    <text x="810" y="830" font-family="Lexend Exa, sans-serif" font-size="18" fill="#00B4D8" font-weight="700">SWC</text>
    
    <!-- OS box (below right SWC) -->
    <rect x="920" y="800" width="100" height="60" rx="8" fill="rgba(0,180,216,0.2)" stroke="#00B4D8" stroke-width="2.5" filter="url(#sketchy)"/>
    <rect x="920" y="800" width="100" height="60" fill="url(#hatchCyan)"/>
    <text x="950" y="835" font-family="Lexend Exa, sans-serif" font-size="16" fill="#00B4D8" font-weight="700">OS</text>
    
    <!-- Arrows down to SWC boxes -->
    <path d="M 650 730 L 620 780" stroke="#00B4D8" stroke-width="2.5" marker-end="url(#arrowSolid)"/>
    <path d="M 870 730 L 840 780" stroke="#00B4D8" stroke-width="2.5" marker-end="url(#arrowSolid)"/>
  </g>
  
  <!-- Customer callout (right side) -->
  <rect x="1420" y="200" width="160" height="300" rx="10" fill="rgba(255,102,0,0.15)" stroke="#ff6600" stroke-width="3" stroke-dasharray="6,4" filter="url(#sketchy)"/>
  <rect x="1420" y="200" width="160" height="300" fill="url(#hatchCoral)"/>
  <text x="1430" y="240" font-family="Lexend Exa, sans-serif" font-size="16" fill="#ff6600" font-weight="700">Experiencable</text>
  <text x="1430" y="270" font-family="Lexend Exa, sans-serif" font-size="16" fill="#ff6600" font-weight="700">and required</text>
  <text x="1430" y="300" font-family="Lexend Exa, sans-serif" font-size="16" fill="#ff6600" font-weight="700">by customer</text>
</svg>
